<svg xmlns="http://www.w3.org/2000/svg" viewBox="0 0 120 120">
  <!-- Circle Background with subtle gradient -->
  <defs>
    <radialGradient id="circleGradient" cx="50%" cy="50%" r="50%" fx="50%" fy="50%">
      <stop offset="0%" stop-color="#9d70fa" />
      <stop offset="100%" stop-color="#7c3aed" />
    </radialGradient>
    <!-- Drop shadow for depth -->
    <filter id="shadow" x="-20%" y="-20%" width="140%" height="140%">
      <feDropShadow dx="0" dy="2" stdDeviation="2" flood-color="#00000033" />
    </filter>
  </defs>
  
  <!-- Circle Background -->
  <circle cx="60" cy="60" r="58" fill="url(#circleGradient)" filter="url(#shadow)" />
  
  <!-- Paw Print with improved shapes -->
  <g fill="#FFFFFF" transform="translate(30, 20) scale(0.75)">
    <!-- Main Pad with softer shape -->
    <path d="M35,70 Q10,70 10,50 Q10,30 35,30 Q60,30 60,50 Q60,70 35,70 Z" fill="#FFFFFF" fill-opacity="0.95" />
    
    <!-- Toe Pads with better spacing -->
    <ellipse cx="20" cy="25" rx="12" ry="10" transform="rotate(-10 20 25)" />
    <ellipse cx="50" cy="25" rx="12" ry="10" transform="rotate(10 50 25)" />
    <ellipse cx="12" cy="50" rx="10" ry="8" transform="rotate(-25 12 50)" />
    <ellipse cx="58" cy="50" rx="10" ry="8" transform="rotate(25 58 50)" />
  </g>
  
  <!-- PS Text with improved font -->
  <text x="60" y="90" font-family="Arial, sans-serif" font-size="24" font-weight="bold" text-anchor="middle" fill="#FFFFFF" filter="url(#shadow)">PS</text>
</svg>